<svg xmlns="http://www.w3.org/2000/svg" viewBox="-1 -1 119 61.5" role="img" aria-label="GreenLog"><title>GreenLog</title><defs><mask id="gl-cut" maskUnits="userSpaceOnUse" x="-2" y="-2" width="122" height="64"><rect x="-2" y="-2" width="122" height="64" fill="#fff"/><path d="M95 16H102.5L109 27H95Z"/><circle cx="52" cy="48" r="11.25"/><circle cx="102" cy="48" r="11.25"/></mask></defs><g fill="#238A51"><g mask="url(#gl-cut)"><rect x="6" y="6" width="22" height="8" rx="4"/><rect x="14" y="20" width="14" height="8" rx="4"/><rect x="0" y="34" width="28" height="8" rx="4"/><rect x="34" y="0" width="54" height="44" rx="5"/><path d="M91 12H104Q107 12 108.5 14.5L116 27Q117 28.5 117 30.5V41Q117 44 114 44H91Z"/></g><circle cx="52" cy="48" r="7.75"/><circle cx="102" cy="48" r="7.75"/></g></svg>
